<svg width="40" height="40" viewBox="0 0 40 40" fill="none" xmlns="http://www.w3.org/2000/svg"><path d="M10.4004 0.5H29.5996C31.8597 0.5 32.9023 0.503288 33.751 0.707031C36.4933 1.36543 38.6346 3.50673 39.293 6.24902C39.4967 7.09768 39.5 8.14027 39.5 10.4004V29.5996C39.5 31.8597 39.4967 32.9023 39.293 33.751C38.6346 36.4933 36.4933 38.6346 33.751 39.293C32.9023 39.4967 31.8597 39.5 29.5996 39.5H10.4004C8.14027 39.5 7.09768 39.4967 6.24902 39.293C3.50673 38.6346 1.36543 36.4933 0.707031 33.751C0.503288 32.9023 0.5 31.8597 0.5 29.5996V10.4004C0.5 8.14027 0.503288 7.09767 0.707031 6.24902C1.36543 3.50673 3.50673 1.36543 6.24902 0.707031C7.09767 0.503288 8.14027 0.5 10.4004 0.5Z" stroke="#DFD9D3"/><path d="M20.8332 15.8333L19.9036 13.9741C19.636 13.439 19.5022 13.1714 19.3026 12.976C19.1262 12.8031 18.9134 12.6716 18.6799 12.5911C18.4158 12.5 18.1167 12.5 17.5184 12.5H14.3332C13.3997 12.5 12.933 12.5 12.5765 12.6817C12.2629 12.8414 12.0079 13.0964 11.8482 13.41C11.6665 13.7665 11.6665 14.2332 11.6665 15.1667V15.8333M11.6665 15.8333H24.3332C25.7333 15.8333 26.4334 15.8333 26.9681 16.1058C27.4386 16.3455 27.821 16.728 28.0607 17.1984C28.3332 17.7331 28.3332 18.4332 28.3332 19.8333V23.5C28.3332 24.9001 28.3332 25.6002 28.0607 26.135C27.821 26.6054 27.4386 26.9878 26.9681 27.2275C26.4334 27.5 25.7333 27.5 24.3332 27.5H15.6665C14.2664 27.5 13.5663 27.5 13.0315 27.2275C12.5611 26.9878 12.1787 26.6054 11.939 26.135C11.6665 25.6002 11.6665 24.9001 11.6665 23.5V15.8333ZM19.9998 24.5833C19.9998 24.5833 22.4998 23.3917 22.4998 21.6044V19.5191L20.6768 18.8677C20.2388 18.7108 19.7598 18.7108 19.3218 18.8677L17.4998 19.5191V21.6044C17.4998 23.3917 19.9998 24.5833 19.9998 24.5833Z" stroke="#1B1A19" stroke-width="1.25" stroke-linecap="round" stroke-linejoin="round"/></svg>