<svg preserveAspectRatio="none" overflow="visible" style="display: block;" width="20" height="20" viewBox="0 0 20 20" fill="none" xmlns="http://www.w3.org/2000/svg">
<g id="mail-05">
<path id="Icon" d="M11.4533 2.19465L17.7266 6.27232C17.9483 6.41641 18.0592 6.48845 18.1395 6.58455C18.2105 6.66962 18.2639 6.76801 18.2965 6.87397C18.3333 6.99367 18.3333 7.12586 18.3333 7.39025V13.5C18.3333 14.9001 18.3333 15.6002 18.0608 16.135C17.8212 16.6054 17.4387 16.9878 16.9683 17.2275C16.4335 17.5 15.7335 17.5 14.3333 17.5H5.66667C4.26654 17.5 3.56647 17.5 3.03169 17.2275C2.56129 16.9878 2.17883 16.6054 1.93915 16.135C1.66667 15.6002 1.66667 14.9001 1.66667 13.5V7.39025C1.66667 7.12586 1.66667 6.99367 1.70348 6.87397C1.73606 6.76801 1.78946 6.66962 1.86054 6.58455C1.94084 6.48845 2.05168 6.41641 2.27335 6.27232L8.5467 2.19465M8.5467 2.19465L3.38655 5.54874C2.81334 5.92133 2.52674 6.10762 2.42748 6.34387C2.34073 6.55032 2.34073 6.78301 2.42748 6.98947C2.52674 7.22572 2.81334 7.41201 3.38655 7.78459L8.5467 11.1387C9.07273 11.4806 9.33575 11.6516 9.61914 11.7181C9.86964 11.7769 10.1304 11.7769 10.3809 11.7181C10.6642 11.6516 10.9273 11.4806 11.4533 11.1387L16.6134 7.78459C17.1867 7.41201 17.4733 7.22572 17.5725 6.98947C17.6593 6.78301 17.6593 6.55032 17.5725 6.34387C17.4733 6.10762 17.1867 5.92133 16.6134 5.54874L11.4533 2.19465C10.9273 1.85272 10.6642 1.68176 10.3809 1.61524C10.1304 1.55644 9.86964 1.55644 9.61914 1.61524C9.33575 1.68176 9.07273 1.85272 8.5467 2.19465ZM17.9167 15.8333L12.381 10.8333M7.61902 10.8333L2.08333 15.8333" stroke="#1B1A19" stroke-width="1.25" stroke-linecap="round" stroke-linejoin="round"/>
</g>
</svg>
